<svg width="40" height="40" viewBox="0 0 40 40" fill="none" xmlns="http://www.w3.org/2000/svg">
  <circle cx="20" cy="20" r="20" fill="#07C160"/>
  <path d="M12.5 16.25C12.5 13.35 15.35 11 18.75 11C22.15 11 25 13.35 25 16.25C25 19.15 22.15 21.5 18.75 21.5C17.85 21.5 17 21.3 16.25 20.95L13.75 22.5L14.75 20.25C13.35 19.15 12.5 17.8 12.5 16.25Z" fill="white"/>
  <circle cx="16.25" cy="15" r="1.25" fill="#07C160"/>
  <circle cx="21.25" cy="15" r="1.25" fill="#07C160"/>
  <path d="M27.5 20C27.5 17.8 25.7 16 23.5 16C21.3 16 19.5 17.8 19.5 20C19.5 22.2 21.3 24 23.5 24C24.1 24 24.65 23.85 25.15 23.6L26.75 24.5L26.1 23C27.1 22.2 27.5 21.15 27.5 20Z" fill="white"/>
  <circle cx="22" cy="19.5" r="0.75" fill="#07C160"/>
  <circle cx="25" cy="19.5" r="0.75" fill="#07C160"/>
</svg>